<svg xmlns="http://www.w3.org/2000/svg" viewBox="0 0 24 24" width="25" height="25">
  <path fill="url(#geminiGradient)" d="M12 2a1 1 0 0 0-1 1 9 9 0 0 1-8 8 1 1 0 0 0 0 2 9 9 0 0 1 8 8 1 1 0 0 0 2 0 9 9 0 0 1 8-8 1 1 0 0 0 0-2 9 9 0 0 1-8-8 1 1 0 0 0-1-1Z"></path>
  <defs>
    <!-- Google Gemini Brand Gradient -->
    <linearGradient id="geminiGradient" x1="0%" y1="0%" x2="100%" y2="100%">
      <stop offset="0%" stop-color="#9bc5ff"></stop>
      <stop offset="50%" stop-color="#2b66ff"></stop>
      <stop offset="100%" stop-color="#ff8ebb"></stop>
    </linearGradient>
  </defs>
</svg>